<svg width="60" height="60" viewBox="0 0 60 60" fill="none" xmlns="http://www.w3.org/2000/svg">
<g clip-path="url(#clip0_93_138)">
<path d="M45.9375 0H14.0625C6.296 0 0 6.296 0 14.0625V45.9375C0 53.704 6.296 60 14.0625 60H45.9375C53.704 60 60 53.704 60 45.9375V14.0625C60 6.296 53.704 0 45.9375 0Z" fill="#F0DB4F"/>
<path d="M15.7762 50.1403L20.3676 47.3616C21.2536 48.9321 22.0594 50.261 23.9923 50.261C25.845 50.261 27.0131 49.5364 27.0131 46.7173V27.5459H32.6517V46.797C32.6517 52.6369 29.2284 55.2952 24.2339 55.2952C19.7233 55.2952 17.1051 52.9592 15.776 50.1399M35.7143 49.5361L40.3052 46.8781C41.5139 48.8517 43.0847 50.3016 45.8634 50.3016C48.1999 50.3016 49.6896 49.1335 49.6896 47.5224C49.6896 45.5892 48.1591 44.9044 45.5815 43.7771L44.1722 43.1726C40.1041 41.441 37.4055 39.266 37.4055 34.6746C37.4055 30.4456 40.6277 27.2234 45.6623 27.2234C49.2469 27.2234 51.8245 28.4721 53.677 31.7344L49.2869 34.5537C48.3201 32.8219 47.2734 32.1373 45.6623 32.1373C44.0109 32.1373 42.9637 33.1845 42.9637 34.5537C42.9637 36.2452 44.0109 36.93 46.4273 37.9775L47.8369 38.5814C52.6296 40.6357 55.3282 42.7296 55.3282 47.4417C55.3282 52.5169 51.341 55.2957 45.9844 55.2957C40.7487 55.2957 37.3655 52.7986 35.7143 49.5361Z" fill="#323330"/>
</g>
<defs>
<clipPath id="clip0_93_138">
<rect width="60" height="60" fill="white"/>
</clipPath>
</defs>
</svg>
