<svg width="60" height="60" viewBox="0 0 60 60" fill="none" xmlns="http://www.w3.org/2000/svg">
<path fill-rule="evenodd" clip-rule="evenodd" d="M30 3.75C35.1918 3.75 40.2669 5.28954 44.5837 8.17392C48.9005 11.0583 52.265 15.158 54.2518 19.9546C56.2386 24.7511 56.7585 30.0291 55.7456 35.1211C54.7327 40.2131 52.2327 44.8904 48.5616 48.5616C44.8904 52.2327 40.2131 54.7327 35.1211 55.7456C30.0291 56.7585 24.7511 56.2386 19.9546 54.2518C15.158 52.265 11.0583 48.9005 8.17392 44.5837C5.28954 40.2669 3.75 35.1918 3.75 30C3.75 23.0381 6.51562 16.3613 11.4384 11.4384C16.3613 6.51562 23.0381 3.75 30 3.75Z" fill="#CC6699"/>
<path d="M46.4662 14.9851C45.2775 10.3238 37.5469 8.79758 30.2306 11.3888C25.6487 12.9285 21.4154 15.3567 17.7731 18.5345C13.7437 22.3032 13.1006 25.5845 13.365 26.9551C14.3025 31.7926 20.9269 34.9538 23.6512 37.2995V37.3126C22.8487 37.7082 16.9687 40.6876 15.5887 43.7251C14.1375 46.9351 15.8194 49.2376 16.935 49.547C18.61 49.9502 20.3692 49.819 21.9658 49.1717C23.5624 48.5243 24.9163 47.3934 25.8375 45.9376C26.5988 44.7581 27.0752 43.4175 27.2288 42.022C27.3824 40.6265 27.2091 39.2145 26.7225 37.8976C28.0347 37.5641 29.3988 37.4859 30.7406 37.667C35.3456 38.2051 36.2494 41.0795 36.0769 42.2832C35.9957 42.7117 35.8233 43.1177 35.5712 43.4736C35.3192 43.8295 34.9935 44.1269 34.6162 44.3457C34.2937 44.5463 34.1944 44.6138 34.2225 44.7638C34.2619 44.9795 34.41 44.972 34.6856 44.9251C35.3776 44.7071 35.9874 44.2847 36.4346 43.7133C36.8817 43.142 37.1453 42.4486 37.1906 41.7245C37.3012 38.912 34.5994 35.7507 29.8144 35.8313C28.4246 35.7917 27.0378 35.9817 25.71 36.3938C25.6435 36.3179 25.576 36.2429 25.5075 36.1688C22.5487 33.0132 17.0812 30.7801 17.3119 26.537C17.3962 24.9938 17.9325 20.9326 27.8119 16.0051C35.9119 11.9682 42.3956 13.0801 43.5169 15.542C45.1181 19.0595 40.0519 25.5938 31.6406 26.537C30.7109 26.7257 29.7507 26.7027 28.8311 26.4696C27.9116 26.2366 27.0563 25.7995 26.3287 25.1907C25.8862 24.7032 25.8206 24.6826 25.6556 24.7726C25.3875 24.9207 25.5581 25.352 25.6556 25.607C25.9777 26.1874 26.4124 26.6977 26.9344 27.1079C27.4563 27.5181 28.0549 27.8199 28.695 27.9957C32.0021 28.7143 35.4515 28.3732 38.5537 27.0207C43.6556 25.0538 47.6344 19.5695 46.4662 14.9851ZM24.7837 38.7432C25.1562 40.027 25.1372 41.3927 24.7294 42.6657C24.6856 42.7982 24.6375 42.9295 24.585 43.0595C24.5325 43.1895 24.4756 43.3145 24.4144 43.4345C24.0988 44.0801 23.6901 44.6758 23.2012 45.2026C21.6769 46.8657 19.545 47.4957 18.6319 46.9651C17.6456 46.3932 18.1387 44.0476 19.9069 42.1782C21.2655 40.8348 22.8318 39.7192 24.5456 38.8745L24.7837 38.7432Z" fill="white"/>
</svg>
