<svg width="60" height="60" viewBox="0 0 60 60" fill="none" xmlns="http://www.w3.org/2000/svg">
<g clip-path="url(#clip0_93_158)">
<path d="M45.9375 0H14.0625C6.296 0 0 6.296 0 14.0625V45.9375C0 53.704 6.296 60 14.0625 60H45.9375C53.704 60 60 53.704 60 45.9375V14.0625C60 6.296 53.704 0 45.9375 0Z" fill="#F4F2ED"/>
<path d="M53.4375 42.876C52.7552 43.1344 52.0019 43.1339 51.3199 42.8745C50.638 42.6152 50.0747 42.115 49.7365 41.4685C47.6123 38.2888 45.2667 35.2524 43.0123 32.151L42.0347 30.8478C39.3502 34.4446 36.6656 37.8978 34.2157 41.4817C33.8966 42.0995 33.3638 42.5803 32.7164 42.8345C32.0691 43.0886 31.3515 43.0988 30.6973 42.8631L40.7707 29.3492L31.4009 17.1383C32.0753 16.8947 32.8132 16.8914 33.4899 17.1288C34.1665 17.3662 34.7406 17.8298 35.115 18.4414C37.2912 21.6214 39.7022 24.6578 42.0998 27.8767C44.5109 24.6838 46.8956 21.6343 49.1241 18.4806C49.4449 17.8727 49.9781 17.4041 50.6221 17.1638C51.266 16.9235 51.9759 16.9284 52.6165 17.1774L48.9806 21.9992C47.3517 24.1494 45.7488 26.3127 44.0548 28.4108C43.9182 28.533 43.8089 28.6826 43.7341 28.8499C43.6593 29.0172 43.6206 29.1984 43.6206 29.3817C43.6206 29.565 43.6593 29.7462 43.7341 29.9135C43.8089 30.0808 43.9182 30.2304 44.0548 30.3526C47.1694 34.4837 50.2577 38.6277 53.4375 42.876ZM6.5625 29.1798C6.83625 27.8767 7.00547 26.4561 7.38352 25.127C9.63797 17.1125 18.8252 13.7762 25.1456 18.7414C28.8466 21.6477 29.772 25.7656 29.5896 30.4049H8.73891C8.4 38.6931 14.3815 43.6972 22.031 41.143C23.2719 40.6991 24.3827 39.9531 25.2632 38.9725C26.1436 37.9919 26.7661 36.8075 27.0743 35.5262C27.4784 34.2231 28.1299 34.0016 29.3679 34.3794C29.164 35.9659 28.6032 37.4855 27.7274 38.824C26.8516 40.1625 25.6838 41.2851 24.3117 42.1072C22.0448 43.347 19.4438 43.8382 16.8808 43.5105C14.3179 43.1828 11.9242 42.0531 10.042 40.2828C8.17999 38.1892 7.05412 35.5439 6.83625 32.7505C6.83625 32.3075 6.6668 31.8643 6.57562 31.4474C6.567 30.6915 6.56263 29.9357 6.5625 29.1798ZM8.76492 28.6194H27.6218C27.5044 22.6119 23.7122 18.3505 18.656 18.3116C13.0263 18.2333 8.99953 22.4033 8.7518 28.5934L8.76492 28.6194Z" fill="#0F0F0F"/>
</g>
<defs>
<clipPath id="clip0_93_158">
<rect width="60" height="60" fill="white"/>
</clipPath>
</defs>
</svg>
