<svg width="60" height="60" viewBox="0 0 60 60" fill="none" xmlns="http://www.w3.org/2000/svg">
<path d="M11.0662 51.0019L6.85312 3.75H53.1469L48.9281 50.9944L29.9719 56.25L11.0662 51.0019Z" fill="#E44F26"/>
<path d="M30 52.2336L45.3188 47.9868L48.9225 7.61426H30V52.2336Z" fill="#F1662A"/>
<path d="M30 25.1382H22.3312L21.8025 19.2038H30V13.4082H15.4688L15.6075 14.9645L17.0306 30.9338H30V25.1382ZM30 40.1888L29.9738 40.1963L23.52 38.4545L23.1075 33.8326H17.2894L18.1013 42.9301L29.9738 46.2263L30 46.2188V40.1888Z" fill="#EBEBEB"/>
<path d="M29.9794 25.1382V30.9338H37.1156L36.4444 38.4507L29.9794 40.1945V46.2245L41.8612 42.9301L41.9475 41.9513L43.3087 26.6945L43.4512 25.1382H41.8894H29.9794ZM29.9794 13.4082V19.2038H43.9781L44.0944 17.9026L44.3587 14.9645L44.4975 13.4082H29.9794Z" fill="white"/>
</svg>
