<svg width="60" height="60" viewBox="0 0 60 60" fill="none" xmlns="http://www.w3.org/2000/svg">
<path d="M11.0662 51.0019L6.85498 3.75H53.145L48.9281 50.9944L29.9719 56.25L11.0662 51.0019Z" fill="#1572B6"/>
<path d="M30 52.2336L45.3188 47.9868L48.9225 7.61426H30V52.2336Z" fill="#33A9DC"/>
<path d="M30 24.7332H37.6688L38.1975 18.7988H30V13.0032H44.5312L44.3925 14.5575L42.9694 30.5288H30V24.7332Z" fill="white"/>
<path d="M30.0356 39.7837L30.0094 39.7912L23.5556 38.0474L23.1431 33.4255H17.325L18.1369 42.5249L30.0075 45.8212L30.0356 45.8137V39.7837Z" fill="#EBEBEB"/>
<path d="M37.1756 30.2832L36.4781 38.0438L30.015 39.7876V45.8176L41.895 42.5251L41.9831 41.5463L42.99 30.2832H37.1756Z" fill="white"/>
<path d="M30.0206 13.0032V18.7988H16.0219L15.9056 17.4957L15.6413 14.5575L15.5025 13.0032H30.0206ZM30 24.7332V30.5288H23.6269L23.5106 29.2257L23.2481 26.2875L23.1094 24.7332H30Z" fill="#EBEBEB"/>
</svg>
