<svg width="60" height="60" viewBox="0 0 60 60" fill="none" xmlns="http://www.w3.org/2000/svg">
<g clip-path="url(#clip0_93_175)">
<path d="M45.9375 0H14.0625C6.296 0 0 6.296 0 14.0625V45.9375C0 53.704 6.296 60 14.0625 60H45.9375C53.704 60 60 53.704 60 45.9375V14.0625C60 6.296 53.704 0 45.9375 0Z" fill="#F4F2ED"/>
<mask id="mask0_93_175" style="mask-type:luminance" maskUnits="userSpaceOnUse" x="8" y="8" width="44" height="44">
<path d="M8.90625 8.90625H51.0938V51.0938H8.90625V8.90625Z" fill="white"/>
</mask>
<g mask="url(#mask0_93_175)">
<path fill-rule="evenodd" clip-rule="evenodd" d="M47.7658 41.7679C45.4713 41.7042 43.6912 41.9392 42.1994 42.5669C41.7698 42.7394 41.0805 42.7394 41.0238 43.2801C41.2535 43.507 41.2811 43.8782 41.4825 44.1928C41.8263 44.7635 42.4296 45.5322 42.9743 45.9311L44.8103 47.2431C45.9292 47.9268 47.1916 48.3264 48.2817 49.0108C48.9131 49.4102 49.544 49.9235 50.1754 50.3517C50.497 50.5797 50.6918 50.9512 51.0937 51.093V51.0067C50.8931 50.751 50.8352 50.3805 50.6353 50.0941L49.7735 49.2677C48.9421 48.1558 47.9086 47.1855 46.7896 46.3879C45.8714 45.7605 43.8637 44.9053 43.4906 43.8508L43.4341 43.7868C44.0643 43.7231 44.8103 43.5011 45.4134 43.33C46.3896 43.0743 47.2783 43.1306 48.2817 42.8742L49.6598 42.4748V42.2191C49.1432 41.706 48.7703 41.0214 48.2257 40.5372C46.7627 39.2826 45.1549 38.0561 43.4906 37.0298C42.6014 36.4598 41.4534 36.0883 40.5068 35.6045C40.1615 35.4332 39.5885 35.3477 39.3878 35.0627C38.8701 34.4364 38.5839 33.6086 38.211 32.8668L35.8586 27.9056C35.3423 26.7935 35.0259 25.6813 34.3957 24.655C31.44 19.8074 28.226 16.871 23.291 13.9905C22.23 13.3917 20.9676 13.1341 19.6253 12.821L17.4738 12.7061C17.0139 12.5067 16.5553 11.9645 16.1535 11.7077C14.5181 10.6811 10.3003 8.45736 9.09417 11.3882C8.31956 13.2414 10.2424 15.066 10.8951 16.0075C11.3838 16.6633 12.014 17.4044 12.3593 18.146C12.5521 18.6304 12.6166 19.1442 12.8179 19.6574C13.2764 20.9118 13.7071 22.3096 14.3097 23.4792C14.6313 24.078 14.969 24.7061 15.3707 25.2475C15.6004 25.567 16.0024 25.7038 16.0879 26.2169C15.686 26.7876 15.6583 27.6421 15.4286 28.356C14.3953 31.5782 14.7972 35.5701 16.2602 37.9424C16.72 38.6549 17.8035 40.2238 19.2738 39.6245C20.565 39.1113 20.2769 37.4861 20.6498 36.0602C20.7365 35.7185 20.6789 35.4902 20.8504 35.2614V35.3254L22.0272 37.6919C22.9167 39.089 24.4666 40.5435 25.7571 41.5136C26.4452 42.0269 26.9906 42.9114 27.851 43.2246V43.1383H27.7945C27.622 42.8826 27.3635 42.7675 27.134 42.5681C26.6177 42.055 26.0439 41.4274 25.642 40.8574C24.4375 39.2608 23.3765 37.4924 22.4292 35.6678C21.9696 34.784 21.5676 33.8144 21.1959 32.9306C21.0222 32.5881 21.0222 32.0742 20.736 31.9042C20.305 32.5305 19.675 33.0738 19.3579 33.8432C18.8125 35.069 18.756 36.5805 18.5554 38.1489C18.4396 38.1775 18.491 38.1489 18.4396 38.2127C17.5225 37.9853 17.2061 37.0431 16.8623 36.2456C16.0017 34.221 15.8575 30.9705 16.6035 28.6321C16.8042 28.0333 17.666 26.1513 17.3219 25.581C17.1485 25.0392 16.5759 24.726 16.2595 24.2978C15.8866 23.756 15.486 23.0721 15.2275 22.4732C14.5394 20.8755 14.1953 19.1083 13.4486 17.5115C13.1034 16.7699 12.5015 15.9998 12.0133 15.3161C11.4679 14.546 10.8667 14.0038 10.436 13.0919C10.2925 12.7724 10.0919 12.265 10.3214 11.9224C10.3781 11.6943 10.4936 11.6029 10.7221 11.5518C11.0948 11.2321 12.1575 11.6374 12.5303 11.8073C13.5914 12.2355 14.4808 12.6344 15.3703 13.2325C15.7722 13.5175 16.203 14.0596 16.7193 14.2028H17.3226C18.2409 14.402 19.2731 14.2666 20.1328 14.5223C21.6539 15.0079 23.0306 15.7199 24.2653 16.4906C28.0235 18.8573 31.1231 22.222 33.2168 26.2431C33.5608 26.8989 33.7043 27.4978 34.0207 28.1821C34.6239 29.5799 35.37 31.0052 35.9711 32.3746C36.5744 33.7148 37.1479 35.0845 38.0085 36.1963C38.4393 36.7952 40.1601 37.1083 40.9345 37.4221C41.5087 37.6778 42.3975 37.908 42.9152 38.2211C43.89 38.8199 44.8657 39.5043 45.7832 40.1601C46.2417 40.5013 47.6772 41.2146 47.7625 41.7834L47.7658 41.7679ZM18.5057 16.9891C18.1094 16.9856 17.7143 17.0335 17.3303 17.1316V17.1956H17.3868C17.6165 17.6519 18.0185 17.9657 18.3051 18.3651L18.9656 19.7338L19.0223 19.6701C19.424 19.3851 19.6253 18.9288 19.6253 18.2451C19.4531 18.0456 19.4247 17.8455 19.2813 17.646C19.109 17.361 18.7361 17.2178 18.5057 16.9905V16.9891Z" fill="#00678C"/>
</g>
</g>
<defs>
<clipPath id="clip0_93_175">
<rect width="60" height="60" fill="white"/>
</clipPath>
</defs>
</svg>
