<svg width="60" height="60" viewBox="0 0 60 60" fill="none" xmlns="http://www.w3.org/2000/svg">
<g clip-path="url(#clip0_93_174)">
<path d="M49.3252 20.5869C48.6869 20.3679 48.0432 20.165 47.3946 19.9785C47.5036 19.5333 47.6038 19.0935 47.6929 18.6615C49.1544 11.5669 48.1989 5.85131 44.9355 3.96947C41.8065 2.16541 36.6893 4.04655 31.5213 8.54427C31.0119 8.98834 30.5139 9.4452 30.0276 9.91442C29.7021 9.6024 29.3709 9.29644 29.034 8.99669C23.6176 4.18759 18.1886 2.16073 14.9286 4.04796C11.8025 5.85763 10.8768 11.2307 12.1926 17.9544C12.3235 18.6203 12.4713 19.2828 12.6358 19.9412C11.8674 20.1596 11.1258 20.392 10.4162 20.6394C4.06588 22.8535 0.010498 26.3231 0.010498 29.9221C0.010498 33.6392 4.36413 37.3675 10.9782 39.6282C11.5144 39.8107 12.0551 39.9798 12.5998 40.1354C12.4229 40.8445 12.2658 41.5585 12.1288 42.2764C10.8744 48.8834 11.854 54.1295 14.9717 55.9277C18.1919 57.7847 23.5965 55.8761 28.859 51.2758C29.2857 50.9018 29.7031 50.5172 30.1106 50.1224C30.6372 50.6305 31.1778 51.1238 31.7319 51.6017C36.8296 55.9881 41.8641 57.7594 44.9788 55.9563C48.1959 54.0939 49.2416 48.4582 47.8841 41.6016C47.7771 41.0644 47.6572 40.5299 47.5244 39.9986C47.904 39.8861 48.2765 39.7704 48.6397 39.6499C55.5157 37.3719 59.9895 33.6888 59.9895 29.9221C59.9895 26.31 55.8032 22.8169 49.3252 20.5869ZM47.8339 37.218C47.5059 37.3265 47.1695 37.4312 46.8265 37.5331C46.0673 35.13 45.043 32.5748 43.7893 29.9345C44.9856 27.3573 45.9706 24.8347 46.7084 22.4472C47.322 22.6248 47.9173 22.812 48.4913 23.0095C54.0417 24.9204 57.4273 27.7453 57.4273 29.9221C57.4273 32.2407 53.7709 35.2506 47.8339 37.218ZM45.3706 42.0992C45.9708 45.131 46.0563 47.8722 45.6587 50.0153C45.3017 51.941 44.5833 53.2247 43.6949 53.7389C41.8049 54.8331 37.7626 53.4109 33.4031 49.6594C32.8877 49.215 32.3848 48.7564 31.895 48.2841C33.5852 46.4358 35.2742 44.2871 36.9227 41.9006C39.8223 41.6433 42.5616 41.2225 45.0458 40.6483C45.1655 41.1293 45.2738 41.6131 45.3706 42.0992ZM20.4587 53.5498C18.612 54.2019 17.1411 54.2206 16.2519 53.708C14.36 52.6169 13.5735 48.4045 14.6463 42.7543C14.7738 42.0867 14.9199 41.4226 15.0842 40.7631C17.541 41.3066 20.2604 41.6974 23.1668 41.9331C24.8266 44.2683 26.5643 46.4147 28.3157 48.2942C27.9435 48.6543 27.5625 49.0052 27.173 49.3466C24.8458 51.3808 22.5139 52.824 20.4587 53.5498ZM11.8072 37.2037C8.88247 36.204 6.46714 34.9048 4.81163 33.4871C3.32387 32.2133 2.57296 30.9483 2.57296 29.9221C2.57296 27.738 5.82893 24.9523 11.2596 23.059C11.9187 22.8293 12.6084 22.6126 13.3242 22.4093C14.0749 24.8506 15.0594 27.4032 16.2475 29.9844C15.0439 32.6038 14.0454 35.1972 13.2874 37.6674C12.7903 37.525 12.2967 37.3703 11.8072 37.2037ZM14.7072 17.4622C13.58 11.7016 14.3286 7.35617 16.2126 6.26554C18.219 5.10391 22.6561 6.76013 27.3328 10.9127C27.6378 11.1841 27.9378 11.461 28.2327 11.7433C26.4901 13.6146 24.7682 15.745 23.1233 18.0664C20.3024 18.3279 17.6022 18.7477 15.1196 19.3103C14.9666 18.6979 14.8291 18.0815 14.7072 17.4622ZM40.5795 23.8511C39.9931 22.8382 39.385 21.8381 38.7555 20.8514C40.6692 21.0935 42.5028 21.4147 44.2246 21.8074C43.7078 23.4643 43.0635 25.1964 42.3051 26.9724C41.7507 25.9206 41.1754 24.8799 40.5795 23.8511ZM30.0288 13.5748C31.2106 14.8552 32.3942 16.2846 33.5584 17.8356C31.1968 17.7241 28.8312 17.7236 26.4694 17.8342C27.6348 16.2975 28.8285 14.8699 30.0288 13.5748ZM19.4104 23.8684C18.822 24.889 18.2574 25.9231 17.7172 26.97C16.9712 25.2004 16.3328 23.4603 15.8115 21.78C17.5227 21.3971 19.3476 21.0841 21.2492 20.8465C20.6127 21.8392 19.9996 22.847 19.4104 23.8684ZM21.3038 39.18C19.3392 38.9607 17.4869 38.6638 15.7761 38.2913C16.3056 36.5809 16.9581 34.8038 17.7202 32.9963C18.2626 34.0439 18.8295 35.0787 19.4205 36.0997C20.0283 37.1493 20.6576 38.1774 21.3038 39.18ZM30.0996 46.4501C28.885 45.1399 27.6737 43.6903 26.4908 42.1313C27.6393 42.1763 28.81 42.1993 30 42.1993C31.2225 42.1993 32.431 42.1719 33.6205 42.1189C32.4526 43.706 31.2734 45.1577 30.0996 46.4501ZM42.3292 32.9039C43.131 34.7314 43.8067 36.4992 44.3432 38.1802C42.6043 38.5771 40.7266 38.8967 38.7483 39.134C39.3822 38.129 39.9961 37.1115 40.5896 36.0821C41.193 35.0358 41.773 33.9761 42.3292 32.9039ZM38.3701 34.802C37.4616 36.3802 36.502 37.9286 35.4928 39.4445C33.6647 39.5739 31.8326 39.6383 30 39.6373C28.1334 39.6373 26.3179 39.5792 24.5696 39.4658C23.534 37.9534 22.5561 36.4024 21.6379 34.816C20.7239 33.2381 19.8705 31.626 19.0789 29.9833C19.8685 28.3401 20.7195 26.7273 21.6304 25.1481L21.6301 25.1484C22.5406 23.5688 23.5107 22.0244 24.5384 20.5185C26.3221 20.3836 28.1512 20.3133 29.9998 20.3133C31.8568 20.3133 33.6885 20.3843 35.4717 20.5202C36.489 22.0238 37.4529 23.5629 38.3617 25.1346C39.2755 26.7102 40.1379 28.3152 40.9473 29.9469C40.1462 31.5954 39.2866 33.2147 38.3701 34.802ZM43.6558 6.18916C45.6641 7.3475 46.4453 12.0186 45.1834 18.1442C45.1028 18.535 45.0123 18.9331 44.9139 19.3367C42.4253 18.7623 39.7232 18.3351 36.8941 18.0697C35.2461 15.7228 33.5383 13.5891 31.824 11.7419C32.2733 11.3088 32.7332 10.887 33.2035 10.4767C37.6316 6.6233 41.7702 5.10181 43.6558 6.18916ZM30 24.5662C32.958 24.5662 35.3559 26.9642 35.3559 29.9221C35.3559 32.8801 32.958 35.278 30 35.278C27.0421 35.278 24.6441 32.8801 24.6441 29.9221C24.6441 26.9642 27.0421 24.5662 30 24.5662Z" fill="#00D8FF"/>
</g>
<defs>
<clipPath id="clip0_93_174">
<rect width="60" height="53.4188" fill="white" transform="translate(0 3.29053)"/>
</clipPath>
</defs>
</svg>
