<svg width="60" height="60" viewBox="0 0 60 60" fill="none" xmlns="http://www.w3.org/2000/svg">
<g clip-path="url(#clip0_103_100)">
<path d="M45.9375 0H14.0625C6.296 0 0 6.296 0 14.0625V45.9375C0 53.704 6.296 60 14.0625 60H45.9375C53.704 60 60 53.704 60 45.9375V14.0625C60 6.296 53.704 0 45.9375 0Z" fill="#023430"/>
<path d="M40.1186 25.2166C37.649 14.3227 32.5022 11.4225 31.1892 9.37242C30.6477 8.4693 30.1681 7.53051 29.7536 6.5625C29.6843 7.53047 29.5568 8.13984 28.7341 8.87391C27.0825 10.3465 20.0676 16.0629 19.4772 28.4409C18.9272 39.982 27.9616 47.0984 29.155 47.8341C30.0729 48.2857 31.1906 47.8437 31.736 47.4291C36.0909 44.4403 42.0412 36.472 40.1233 25.2166" fill="#10AA50"/>
<path d="M30.1278 41.6885C29.9004 44.545 29.7375 46.2049 29.16 47.8373C29.16 47.8373 29.539 50.5568 29.8053 53.4375H30.7472C30.9719 51.4088 31.315 49.3951 31.7747 47.4065C30.5553 46.8065 30.1746 44.1951 30.1278 41.6885Z" fill="#B8C4C2"/>
<path d="M31.773 47.4082C30.5407 46.8389 30.1842 44.1724 30.1294 41.6885C30.434 37.5909 30.5229 33.4801 30.3956 29.3732C30.3309 27.2184 30.4261 9.41434 29.8647 6.80762C30.2488 7.69048 30.6912 8.54675 31.1892 9.37074C32.5022 11.4225 37.6507 14.3226 40.1187 25.2166C42.0412 36.4528 36.1233 44.4 31.773 47.4082Z" fill="#12924F"/>
</g>
<defs>
<clipPath id="clip0_103_100">
<rect width="60" height="60" fill="white"/>
</clipPath>
</defs>
</svg>
