<svg width="60" height="60" viewBox="0 0 60 60" fill="none" xmlns="http://www.w3.org/2000/svg">
<g clip-path="url(#clip0_103_88)">
<path d="M53.5842 25.9004C53.56 25.9004 53.5363 25.9075 53.5162 25.921L52.4165 26.5632C52.3959 26.576 52.3788 26.594 52.3672 26.6154C52.3555 26.6367 52.3496 26.6607 52.35 26.6851V27.9695C52.35 28.0238 52.3758 28.0651 52.4165 28.0923L53.5162 28.7335C53.5363 28.747 53.56 28.7542 53.5842 28.7542C53.6084 28.7542 53.6321 28.747 53.6522 28.7335L54.75 28.0923C54.7708 28.0792 54.788 28.061 54.7999 28.0394C54.8118 28.0178 54.818 27.9936 54.818 27.969V26.686C54.8182 26.6615 54.8121 26.6374 54.8002 26.6161C54.7882 26.5947 54.7709 26.5768 54.75 26.5641L53.6517 25.9215C53.6317 25.9081 53.6082 25.9005 53.5842 25.9004ZM29.6344 33.5804C29.4342 33.5804 29.235 33.6291 29.0653 33.7248L23.6517 36.878C23.4782 36.9799 23.3345 37.1254 23.2346 37.3001C23.1348 37.4748 23.0824 37.6725 23.0826 37.8737V44.1657C23.0826 44.5754 23.2992 44.9579 23.6517 45.1632L25.0767 45.9816C25.7686 46.3229 26.0128 46.322 26.3245 46.322C27.3417 46.322 27.9253 45.6943 27.9253 44.6157V38.4071C27.9247 38.3639 27.9074 38.3226 27.8769 38.2919C27.8465 38.2612 27.8054 38.2435 27.7622 38.2426H27.0712C27.0279 38.2433 26.9865 38.2609 26.9559 38.2916C26.9252 38.3223 26.9078 38.3637 26.9072 38.4071V44.6171C26.9072 45.0948 26.4061 45.5734 25.6059 45.1641L24.127 44.304C24.0726 44.2768 24.045 44.2074 24.045 44.153V37.8596C24.045 37.8052 24.0726 37.7377 24.127 37.7101L29.5387 34.5709C29.5795 34.5437 29.648 34.5437 29.7023 34.5709L35.1155 37.7101C35.1694 37.7377 35.1961 37.7916 35.1961 37.8601V44.1526C35.1961 44.2205 35.1694 44.2763 35.1155 44.3035L29.7023 47.4568C29.6615 47.484 29.5931 47.484 29.5387 47.4568L28.1555 46.6229C28.1147 46.5957 28.0603 46.5821 28.0195 46.6093C27.6398 46.8277 27.5733 46.8563 27.2067 46.9791C27.1251 47.0063 26.9897 47.0602 27.2606 47.2102L29.0653 48.2893C29.2415 48.3845 29.4309 48.4388 29.6344 48.4388C29.8378 48.4388 30.0408 48.3849 30.2034 48.317L35.617 45.1637C35.7908 45.0616 35.9347 44.9158 36.0346 44.7408C36.1344 44.5658 36.1866 44.3677 36.1861 44.1662V37.8737C36.1861 37.464 35.9695 37.0829 35.617 36.878L30.2034 33.7248C30.0291 33.6291 29.8332 33.5795 29.6344 33.5804ZM38.0859 36.4538C37.8081 36.4549 37.5421 36.5663 37.3464 36.7635C37.1506 36.9606 37.0411 37.2274 37.042 37.5052C37.0413 37.783 37.1508 38.0497 37.3465 38.2467C37.5422 38.4438 37.8082 38.5551 38.0859 38.5562C38.6564 38.5562 39.1303 38.0785 39.1303 37.5052C39.1288 37.2281 39.0185 36.9626 38.8232 36.766C38.6278 36.5694 38.3631 36.457 38.0859 36.4538ZM38.0719 36.6315C38.1874 36.6301 38.3021 36.6516 38.4093 36.6949C38.5164 36.7382 38.6139 36.8024 38.696 36.8837C38.7781 36.965 38.8433 37.0618 38.8877 37.1685C38.9321 37.2752 38.9548 37.3897 38.9545 37.5052C38.9545 37.9834 38.5608 38.393 38.0723 38.393C37.598 38.393 37.2042 37.9965 37.2042 37.5052C37.2042 37.014 37.6111 36.6315 38.0719 36.6315ZM37.6926 36.9179V38.1188H37.9242V37.6426H38.1276C38.2092 37.6426 38.2359 37.6698 38.2495 37.7377C38.2495 37.7518 38.2898 38.0518 38.2898 38.1062H38.5336C38.5064 38.0518 38.4928 37.8877 38.4792 37.7921C38.4661 37.6421 38.453 37.5329 38.2898 37.5193C38.3714 37.4916 38.5069 37.4509 38.5069 37.2324C38.5069 36.9184 38.235 36.9184 38.1 36.9184L37.6926 36.9179ZM37.8965 37.1091H38.0859C38.1544 37.1091 38.2622 37.1091 38.2622 37.2727C38.2622 37.3271 38.2359 37.4373 38.0859 37.4373H37.8961L37.8965 37.1091ZM31.1137 38.0513C29.5669 38.0513 28.6444 38.7066 28.6444 39.8124C28.6444 41.0002 29.5669 41.3265 31.0458 41.477C32.8223 41.6546 32.9583 41.9143 32.9583 42.2691C32.9583 42.8832 32.4689 43.1429 31.3294 43.1429C29.8912 43.1429 29.5795 42.7876 29.4708 42.0643C29.4708 41.9823 29.4042 41.9284 29.3226 41.9284H28.6172C28.5741 41.9289 28.5329 41.9463 28.5025 41.9769C28.4722 42.0075 28.4551 42.0488 28.455 42.092C28.455 43.0201 28.943 44.1123 31.3176 44.1123C33.0262 44.1123 34.0167 43.4288 34.0167 42.2279C34.0167 41.0537 33.2292 40.7401 31.5614 40.5216C29.8786 40.3032 29.7028 40.1804 29.7028 39.7848C29.7028 39.4571 29.8519 39.0207 31.0997 39.0207C32.212 39.0207 32.632 39.2668 32.7951 40.0173C32.8033 40.0511 32.8224 40.0814 32.8494 40.1034C32.8764 40.1254 32.9099 40.138 32.9447 40.1391H33.6633C33.7045 40.1391 33.7453 40.1124 33.773 40.0852C33.7976 40.0487 33.8114 40.006 33.8128 39.962C33.7045 38.6518 32.8505 38.0513 31.1137 38.0513Z" fill="#5FA04E"/>
<path d="M40.3463 11.5613C40.2886 11.5605 40.2316 11.5749 40.1813 11.603C40.1289 11.6338 40.0853 11.6774 40.0545 11.7297C40.0238 11.7821 40.0069 11.8414 40.0055 11.9021V20.7751C40.0055 20.8566 39.9633 20.9391 39.8822 20.9935C39.8447 21.0136 39.8029 21.0241 39.7603 21.0241C39.7178 21.0241 39.6759 21.0136 39.6385 20.9935L38.2013 20.1615C38.0958 20.1012 37.9764 20.0695 37.8549 20.0695C37.7334 20.0695 37.614 20.1012 37.5085 20.1615L31.7578 23.506C31.6514 23.566 31.5627 23.6531 31.5008 23.7583C31.4388 23.8636 31.4057 23.9834 31.4049 24.1055V30.7805C31.4049 31.0262 31.5408 31.2587 31.7578 31.3815L37.5094 34.726C37.6148 34.7862 37.7342 34.8178 37.8556 34.8178C37.977 34.8178 38.0963 34.7862 38.2017 34.726L43.9528 31.3815C44.1699 31.2587 44.3058 31.0262 44.3058 30.7805V14.1413C44.3058 13.8821 44.1699 13.6491 43.9528 13.5268L40.5216 11.603C40.4673 11.5758 40.407 11.5616 40.3463 11.5613ZM6.41581 19.8891C6.30753 19.8891 6.19925 19.9285 6.10456 19.9829L0.352995 23.3152C0.244899 23.3767 0.15519 23.466 0.0931377 23.5738C0.0310854 23.6816 -0.00105886 23.804 2.66077e-05 23.9283L0.0140891 32.8824C0.0140891 33.0057 0.0811204 33.1285 0.18987 33.1833C0.240285 33.2164 0.299265 33.234 0.359558 33.234C0.419851 33.234 0.47883 33.2164 0.529245 33.1833L3.94831 31.2179C4.16534 31.0951 4.29987 30.8626 4.29987 30.6169V26.4263C4.29987 26.1807 4.43581 25.9482 4.65331 25.8254L6.10456 24.9793C6.21284 24.9108 6.33565 24.8837 6.45753 24.8837C6.5794 24.8837 6.70175 24.9108 6.7969 24.9793L8.24815 25.8254C8.46518 25.9482 8.60112 26.1807 8.60112 26.4263V30.6169C8.60112 30.8626 8.73612 31.0951 8.95268 31.2179L12.3446 33.1833C12.3973 33.217 12.4585 33.2348 12.521 33.2348C12.5836 33.2348 12.6448 33.217 12.6975 33.1833C12.7515 33.154 12.7965 33.1104 12.8275 33.0574C12.8586 33.0044 12.8746 32.9439 12.8738 32.8824V23.9283C12.8738 23.6827 12.7378 23.4502 12.5203 23.3269L6.78284 19.9829C6.68618 19.9316 6.58047 19.8996 6.47159 19.8887L6.41581 19.8891ZM53.6035 19.9876C53.4849 19.9876 53.3672 20.0185 53.2585 20.0804L47.506 23.423C47.2889 23.5458 47.1544 23.7783 47.1544 24.0244V30.6994C47.1544 30.9451 47.2889 31.1776 47.506 31.3004L53.2172 34.5755C53.3201 34.6359 53.4371 34.6677 53.5564 34.6677C53.6756 34.6677 53.7927 34.6359 53.8955 34.5755L57.3549 32.6382C57.4088 32.6088 57.4536 32.5652 57.4846 32.5122C57.5156 32.4591 57.5315 32.3987 57.5307 32.3373C57.5313 32.276 57.5153 32.2157 57.4844 32.1629C57.4534 32.11 57.4086 32.0666 57.3549 32.0373L51.5766 28.6923C51.524 28.6614 51.4803 28.6176 51.4495 28.565C51.4187 28.5123 51.402 28.4527 51.4008 28.3918V26.303C51.4001 26.2418 51.4161 26.1815 51.4471 26.1287C51.4781 26.0758 51.5228 26.0324 51.5766 26.003L53.3813 24.9652C53.434 24.9316 53.4952 24.9137 53.5578 24.9137C53.6203 24.9137 53.6815 24.9316 53.7342 24.9652L55.5371 26.0026C55.5899 26.0333 55.6339 26.077 55.6649 26.1296C55.696 26.1822 55.7129 26.242 55.7142 26.303V27.9413C55.7142 28.0646 55.7817 28.1874 55.89 28.2418C55.9428 28.2755 56.0041 28.2934 56.0667 28.2934C56.1294 28.2934 56.1907 28.2755 56.2435 28.2418L59.6611 26.2355C59.7659 26.1744 59.8526 26.0865 59.9122 25.9808C59.9719 25.8751 60.0023 25.7555 60.0005 25.6341V24.0099C60.0005 23.7643 59.8646 23.5332 59.6611 23.4099L53.9499 20.0799C53.8445 20.0196 53.7253 19.9877 53.6039 19.9871L53.6035 19.9876ZM37.8549 24.9723C37.8853 24.9723 37.9163 24.9793 37.9439 24.9933L39.9099 26.1399C39.9642 26.1671 39.9919 26.2346 39.9919 26.2894V28.5826C39.9919 28.651 39.9642 28.7063 39.9099 28.7335L37.9435 29.8801C37.9159 29.8936 37.8856 29.9006 37.8549 29.9006C37.8242 29.9006 37.7939 29.8936 37.7663 29.8801L35.7999 28.7335C35.7455 28.7063 35.7178 28.6374 35.7178 28.5826V26.2894C35.7178 26.221 35.746 26.1671 35.7999 26.1394L37.7663 24.9933C37.7938 24.9791 37.8239 24.9718 37.8549 24.9723Z" fill="#333333"/>
<path d="M22.4916 20.1061C22.3863 20.0455 22.2671 20.0137 22.1457 20.0137C22.0242 20.0137 21.905 20.0455 21.7997 20.1061L16.0885 23.4234C15.9838 23.4845 15.8972 23.5723 15.8376 23.6778C15.778 23.7833 15.7474 23.9027 15.7491 24.0239V30.6712C15.7491 30.9173 15.885 31.1494 16.0885 31.2722L21.7997 34.589C21.905 34.6496 22.0242 34.6814 22.1457 34.6814C22.2671 34.6814 22.3863 34.6496 22.4916 34.589L28.2024 31.2722C28.4194 31.1494 28.5417 30.9173 28.5417 30.6712V24.0239C28.5417 23.7783 28.4058 23.5458 28.2024 23.4234L22.4916 20.1061Z" fill="url(#paint0_linear_103_88)"/>
<path d="M28.216 23.4234L22.478 20.1061C22.4217 20.0775 22.3627 20.0548 22.3018 20.0381L15.8715 31.1081C15.9258 31.1765 15.9933 31.2309 16.0613 31.2721L21.7997 34.589C21.9624 34.6846 22.1522 34.7118 22.3285 34.657L28.3655 23.5462C28.3259 23.4942 28.2747 23.4522 28.216 23.4234Z" fill="url(#paint1_linear_103_88)"/>
<path d="M28.2159 31.2717C28.379 31.1761 28.5009 31.0125 28.5553 30.8349L22.274 20.0241C22.1118 19.9969 21.9351 20.0105 21.786 20.1061L16.0884 23.4094L22.2337 34.6842C22.3148 34.6706 22.4099 34.6435 22.4915 34.6022L28.2159 31.2717Z" fill="url(#paint2_linear_103_88)"/>
</g>
<defs>
<linearGradient id="paint0_linear_103_88" x1="24.4713" y1="22.5763" x2="19.2556" y2="33.1502" gradientUnits="userSpaceOnUse">
<stop stop-color="#3F873F"/>
<stop offset="0.33" stop-color="#3F8B3D"/>
<stop offset="0.637" stop-color="#3E9638"/>
<stop offset="0.934" stop-color="#3DA92E"/>
<stop offset="1" stop-color="#3DAE2B"/>
</linearGradient>
<linearGradient id="paint1_linear_103_88" x1="21.2778" y1="28.1238" x2="35.8302" y2="17.4378" gradientUnits="userSpaceOnUse">
<stop offset="0.138" stop-color="#3F873F"/>
<stop offset="0.402" stop-color="#52A044"/>
<stop offset="0.713" stop-color="#64B749"/>
<stop offset="0.908" stop-color="#6ABF4B"/>
</linearGradient>
<linearGradient id="paint2_linear_103_88" x1="15.5401" y1="27.3453" x2="28.7553" y2="27.3453" gradientUnits="userSpaceOnUse">
<stop offset="0.092" stop-color="#6ABF4B"/>
<stop offset="0.287" stop-color="#64B749"/>
<stop offset="0.598" stop-color="#52A044"/>
<stop offset="0.862" stop-color="#3F873F"/>
</linearGradient>
<clipPath id="clip0_103_88">
<rect width="60" height="60" fill="white"/>
</clipPath>
</defs>
</svg>
