<svg width="60" height="60" viewBox="0 0 60 60" fill="none" xmlns="http://www.w3.org/2000/svg">
<g clip-path="url(#clip0_93_142)">
<path d="M30.0019 12.001C22.0017 12.001 17.0035 15.9994 15.0019 23.9996C18.001 20.0007 21.502 18.5011 25.501 19.501C27.7842 20.07 29.416 21.7257 31.223 23.5604C34.1639 26.5449 37.568 30 45.0019 30C53.0016 30 58.0003 26.0011 60.0019 17.9991C57.0024 22.0004 53.5017 23.4999 49.5024 22.5C47.2196 21.9305 45.5897 20.2754 43.7803 18.4407C40.8413 15.4561 37.4381 12.001 30.0019 12.001ZM15.0019 30C7.0022 30 2.00345 33.9989 0.00189209 42.001C3.00095 37.9997 6.50158 36.5002 10.501 37.5C12.7842 38.0696 14.416 39.7247 16.223 41.5594C19.1639 44.5439 22.568 47.9991 30.0019 47.9991C38.0016 47.9991 43.0003 44.0007 45.0019 36.0005C42.0024 39.9994 38.5017 41.4989 34.5024 40.4991C32.2196 39.93 30.5897 38.2744 28.7803 36.4397C25.8413 33.4552 22.4381 30 15.0019 30Z" fill="#38BDF8"/>
</g>
<defs>
<clipPath id="clip0_93_142">
<rect width="60" height="60" fill="white"/>
</clipPath>
</defs>
</svg>
