<svg width="60" height="60" viewBox="0 0 60 60" fill="none" xmlns="http://www.w3.org/2000/svg">
<g clip-path="url(#clip0_93_237)">
<path d="M45.9375 0H14.0625C6.296 0 0 6.296 0 14.0625V45.9375C0 53.704 6.296 60 14.0625 60H45.9375C53.704 60 60 53.704 60 45.9375V14.0625C60 6.296 53.704 0 45.9375 0Z" fill="#F4F2ED"/>
<mask id="mask0_93_237" style="mask-type:luminance" maskUnits="userSpaceOnUse" x="14" y="6" width="32" height="48">
<path d="M14.2969 6.5625H45.5531V53.4375H14.2969V6.5625Z" fill="white"/>
</mask>
<g mask="url(#mask0_93_237)">
<path d="M22.1126 53.4376C26.4251 53.4376 29.925 49.9377 29.925 45.6252V37.8125H22.1126C17.8001 37.8125 14.2999 41.3127 14.2999 45.6252C14.2999 49.9377 17.8001 53.4376 22.1126 53.4376Z" fill="#4CA92B"/>
<path d="M14.2999 29.9999C14.2999 25.6874 17.8001 22.1875 22.1126 22.1875H29.925V37.8123H22.1126C17.8001 37.8123 14.2999 34.3124 14.2999 29.9999Z" fill="#A259FF"/>
<path d="M14.2999 14.3749C14.2999 10.0624 17.8001 6.5625 22.1126 6.5625H29.925V22.1876H22.1126C17.8001 22.1876 14.2999 18.6874 14.2999 14.3749Z" fill="#F24E1E"/>
<path d="M29.925 6.5625H37.7375C42.05 6.5625 45.5501 10.0624 45.5501 14.3749C45.5501 18.6874 42.05 22.1876 37.7375 22.1876H29.925V6.5625Z" fill="#FF7262"/>
<path d="M45.5501 29.9999C45.5501 34.3124 42.05 37.8123 37.7375 37.8123C33.425 37.8123 29.925 34.3124 29.925 29.9999C29.925 25.6874 33.425 22.1875 37.7375 22.1875C42.05 22.1875 45.5501 25.6874 45.5501 29.9999Z" fill="#1ABCFE"/>
</g>
</g>
<defs>
<clipPath id="clip0_93_237">
<rect width="60" height="60" fill="white"/>
</clipPath>
</defs>
</svg>
