<svg width="263" height="80" viewBox="0 0 275 92" fill="none" xmlns="http://www.w3.org/2000/svg">
  <path
    d="M0.626404 24.75C-0.30097 21.9981 -0.332982 20.7902 1.45508 19.7413C10.3002 14.5536 19.3135 9.59334 27.7703 3.82356C33.0239 0.239301 36.8475 0.707058 41.9321 4.15341C50.3953 9.88939 59.4725 14.7199 68.8685 20.2731C80.0097 13.6683 91.435 6.89345 103.063 -0.000106812C109.257 3.60607 115.182 6.98758 121.037 10.4879C125.729 13.2919 130.363 16.1973 134.965 19.1493C136.622 20.2128 138.026 20.2137 139.703 19.1694C147.822 14.1123 155.972 9.10543 164.155 4.15245C166.352 2.82311 168.702 1.74774 171.283 0.398216C183.416 5.62438 193.825 14.2402 205.996 20.2092C211.843 16.7199 217.685 13.2288 223.532 9.74506C228.23 6.94647 232.963 4.20275 237.624 1.3421C239.488 0.198126 241.157 0.401896 242.904 1.46908C252.382 7.26171 261.876 13.0305 271.341 18.8451C272.613 19.6262 273.753 20.624 274.872 21.459C274.104 24.0968 272.903 24.4668 270.949 23.27C265.125 19.6993 259.255 16.2009 253.411 12.6605C248.892 9.92319 244.385 7.16479 239.823 4.38544C230.846 9.94413 222.336 15.6829 213.384 20.6194C205.135 25.1685 206.754 25.9259 198.227 20.6093C189.527 15.184 180.672 10.0054 171.446 4.45493C160.25 11.2453 148.893 18.1324 137.343 25.1384C126.04 18.3279 114.658 11.4682 103.071 4.48688C91.6425 11.364 80.2337 18.2293 68.7507 25.1384C57.4662 18.2786 46.3778 11.5385 34.9498 4.592C23.3874 10.4969 12.7324 18.5289 0.626404 24.75Z"
    fill="#F1F1F1" />
  <path
    d="M34.684 33.3083C37.4204 34.8542 40.4125 36.4522 43.3116 38.2028C50.7689 42.7072 58.1787 47.2891 65.6196 51.8209C67.8068 53.153 69.6863 53.3668 72.2034 51.7578C80.9837 46.1462 90.0078 40.9173 98.9608 35.5778C100.276 34.7939 101.706 34.201 103.281 33.4216C108.417 36.3746 113.625 39.2956 118.76 42.3407C124.196 45.5651 129.6 48.8488 134.942 52.2266C136.846 53.4308 138.258 53.0845 140.095 51.9662C149.873 46.0155 159.749 40.222 169.597 34.3855C170.176 34.0429 170.813 33.7971 171.664 33.3906C177.525 36.7829 183.449 40.1717 189.332 43.6318C193.747 46.2293 198.16 48.8378 202.474 51.5961C204.937 53.1713 207.054 53.1466 209.56 51.5779C218.68 45.8657 227.895 40.3042 237.099 34.7272C238.097 34.1224 239.258 33.7871 240.384 33.3092C250.902 39.6034 261.307 45.8127 271.685 52.0695C272.691 52.677 273.74 53.4417 274.35 54.4002C274.758 55.0443 274.427 56.159 274.427 57.9078C261.793 52.0521 251.535 43.6409 239.702 37.6619C228.349 44.5601 216.995 51.459 205.615 58.3737C194.165 51.4097 182.944 44.5838 171.347 37.5312C160.13 44.4139 148.807 51.3622 137.279 58.4367C125.969 51.524 114.761 44.6733 103.078 37.5322C91.9485 44.3253 80.6101 51.2454 68.8522 58.4221C57.7759 51.6354 46.5762 44.7738 34.9544 37.6528C23.4998 43.6528 12.6518 51.3358 0.931458 57.8273C-0.00868976 54.3837 0.210525 53.7405 2.54129 52.2586C5.27948 50.5172 8.00587 48.7547 10.8062 47.1192C18.618 42.5573 26.4647 38.0566 34.684 33.3083Z"
    fill="#F1F1F1" />
  <path
    d="M171.453 70.7775C160.076 77.6949 148.843 84.5236 137.318 91.5304C125.94 84.5958 114.589 77.6784 103.092 70.6706C91.8188 77.5587 80.6046 84.4121 68.9508 91.5332C57.6781 84.7128 46.2903 77.8237 34.726 70.8269C28.9316 74.2632 23.2741 77.737 17.5034 81.0069C11.942 84.159 7.0201 88.519 0.714935 90.614C-0.955236 87.5149 1.05393 86.3409 2.6839 85.2874C5.69445 83.3413 8.85488 81.6273 11.9476 79.8091C18.5808 75.9077 25.2058 71.9918 31.8481 68.1069C32.8695 67.5094 33.9649 67.0379 34.9361 66.5537C45.4012 72.8032 55.6653 78.9375 65.9348 85.0617C68.0006 86.2934 69.7593 86.3573 72.0755 84.9283C82.2564 78.6451 92.6284 72.6698 103.163 66.4468C113.23 72.5053 123.33 78.5565 133.396 84.6625C135.966 86.2212 137.995 86.381 140.869 84.5537C150.239 78.5921 159.933 73.1366 169.51 67.4993C170.092 67.1567 170.738 66.9228 171.494 66.5738C176.646 69.5167 181.865 72.4203 187.006 75.4582C192.447 78.6753 197.869 81.9334 203.184 85.3541C205.361 86.7557 207.134 85.9983 208.925 84.9585C212.028 83.1567 215.027 81.1778 218.112 79.344C225.169 75.1494 232.252 70.9996 239.673 66.6259C241.047 67.2865 242.793 67.9736 244.387 68.9164C253.365 74.2303 262.322 79.5779 271.242 84.9896C272.517 85.7634 273.633 86.8662 274.632 87.9864C274.891 88.2769 274.569 89.2901 274.252 89.8127C274.064 90.1243 273.272 90.3664 272.913 90.2257C271.324 89.6044 269.702 88.9813 268.257 88.0923C260.537 83.3477 252.874 78.5099 245.175 73.7342C243.576 72.7428 241.901 71.8749 240.036 70.8223C234.925 73.8767 229.783 76.921 224.669 80.0137C219.404 83.1969 214.114 86.3427 208.943 89.6721C206.443 91.281 204.48 91.0179 202 89.4382C192.489 83.377 182.826 77.5533 173.212 71.6528C172.643 71.3038 172.014 71.0544 171.453 70.7775Z"
    fill="#F1F1F1" />
</svg>