<svg width="157" height="50" viewBox="0 0 166 59" fill="none" xmlns="http://www.w3.org/2000/svg">
<path d="M45.2629 8.2649C47.0523 10.0295 48.8096 11.7575 50.561 13.4915C52.3143 15.2278 54.0613 16.9713 55.8114 18.7112C57.6218 20.5106 59.4425 22.3007 61.2399 24.113C62.9587 25.8458 64.7665 27.5014 66.5246 29.4917C65.7212 30.3555 65.1215 31.0442 64.4758 31.6872C58.5087 37.6335 52.5308 43.5695 46.5651 49.5171C46.0457 50.0349 45.5898 50.6153 45.5009 50.7166C47.3738 52.8477 49.0855 54.7959 51.0228 57.0003C55.6242 52.3854 60.1695 47.9139 64.6598 43.383C69.2072 38.7956 73.8431 34.2949 78.554 29.644C69.3488 20.4644 60.2441 11.3847 51.1983 2.36375C49.1798 4.37032 47.3167 6.22342 45.2629 8.2649ZM51.0817 58.9294C50.6918 58.7074 50.3534 58.5955 50.1256 58.3721C47.7588 56.0558 45.4098 53.7212 42.9661 51.3041C44.5394 49.1112 46.5356 47.5174 48.2858 45.7047C49.9993 43.9292 51.7775 42.216 53.5276 40.4752C55.3376 38.6749 57.1507 36.8768 58.9579 35.0729C60.6924 33.3419 62.4206 31.6047 64.2507 29.7711C57.4583 22.1888 50.1926 15.3295 43.1702 8.21202C43.4047 7.74298 43.5342 7.32627 43.7887 7.00856C44.2117 6.48018 44.6998 5.99945 45.1875 5.52651C47.0483 3.72181 48.9199 1.92832 50.9237 0C54.6436 3.01297 57.5896 6.62503 60.9327 9.82529C64.2337 12.9864 67.4763 16.2084 70.7211 19.428C74.0146 22.6969 77.2786 25.9946 80.6654 29.3891C80.2858 29.9349 80.0254 30.4594 79.632 30.8515C70.5915 39.8655 61.5382 48.867 52.4768 57.8601C52.0726 58.2615 51.5667 58.5617 51.0817 58.9294Z" fill="#4CA92B"/>
<path d="M120.9 29.7346C111.842 20.7265 102.701 11.6363 93.5306 2.51637C91.8185 4.30549 89.9192 6.29022 88.0012 8.2946C95.0088 15.3038 102.155 22.4504 109.412 29.7089C105.707 33.416 102.191 36.9225 98.689 40.4427C95.1468 44.0025 91.4443 47.4113 87.9949 51.2179C90.1296 53.1706 91.7551 55.2337 93.7794 56.7152C103.003 47.5387 112.1 38.4892 120.9 29.7346ZM93.6356 58.6292C91.1866 56.2 88.7148 53.7488 86.1403 51.1957C86.6776 49.3306 88.4174 48.2644 89.6999 46.8948C92.1633 44.2641 94.8002 41.7937 97.3577 39.2499C99.7348 36.8857 102.098 34.5076 104.478 32.1468C105.308 31.3235 106.17 30.5331 107.173 29.5801C100.082 22.509 93.0001 15.4468 85.9831 8.44945C86.9625 6.61157 91.467 1.99033 93.6458 0.414822C103.488 10.203 113.306 19.9666 122.919 29.5264C113.331 39.0546 103.511 48.815 93.6356 58.6292Z" fill="#4CA92B"/>
<path d="M2.35618 8.31281C9.42854 15.35 16.5107 22.3971 23.663 29.5135C16.3848 36.7551 9.29677 43.808 2.1565 50.9128C4.26611 52.996 6.16049 55.0162 8.0955 56.7539C17.2802 47.6298 26.2558 38.7117 35.4878 29.5401C31.1645 24.9385 26.4948 20.4977 21.9491 15.9388C17.3891 11.3655 12.8332 6.7874 8.21967 2.15556C6.21545 4.25974 4.34834 6.22081 2.35618 8.31281ZM8.18883 59C5.38123 56.2427 2.79065 53.6986 4.10814e-06 50.9581C7.18401 43.808 14.2671 36.7591 21.5476 29.5126C14.3801 22.3829 7.24653 15.2873 0.309043 8.38635C3.10413 5.65223 5.76127 3.0528 8.53449 0.340176C8.95827 0.730048 9.59017 1.27393 10.1796 1.85979C18.7485 10.3725 27.3128 18.8902 35.8745 27.4094C37.2794 28.8068 37.294 30.1937 35.9183 31.57C27.2963 40.1497 18.6712 48.7266 10.043 57.3005C9.50933 57.8298 8.93506 58.3183 8.18883 59Z" fill="#4CA92B"/>
<path d="M163.97 29.5335C163.932 29.3709 163.929 29.188 163.848 29.0507C163.72 28.8345 163.558 28.6306 163.379 28.4534C154.628 19.7766 145.875 11.1031 137.118 2.43267C137.066 2.38128 136.966 2.36759 136.885 2.35852C136.804 2.34916 136.72 2.3676 136.649 2.37286C134.736 4.30419 132.831 6.2284 130.791 8.28769C137.875 15.3029 144.995 22.3535 152.236 29.5237C148.609 33.1341 145.062 36.6632 141.516 40.1945C137.935 43.7605 134.355 47.3282 131.068 50.6029C133.101 52.7735 134.945 54.743 136.781 56.7032C139.12 54.9535 162.963 31.1131 163.97 29.5335ZM150.259 29.3878C143.025 22.2079 135.916 15.1515 129.036 8.32215C131.673 5.66053 134.289 3.01965 136.734 0.551408C146.37 10.1364 156.107 19.8223 166 29.6636C165.914 29.8106 165.749 30.3035 165.419 30.633C156.147 39.8801 146.859 49.1112 137.568 58.3392C137.395 58.5115 137.155 58.6185 136.729 58.9005C134.024 56.4052 131.471 53.7123 128.614 50.9311C135.768 43.8102 142.848 36.7631 150.259 29.3878Z" fill="#4CA92B"/>
</svg>
