<svg width="250" height="250" viewBox="0 0 316 316" fill="none" xmlns="http://www.w3.org/2000/svg">
  <path fill-rule="evenodd" clip-rule="evenodd"
    d="M62.7511 30.949C66.7676 27.9375 70.9231 25.1188 75.2016 22.5023L22.5064 75.2016C25.123 70.923 27.9374 66.7666 30.9459 62.7554L62.7511 30.949ZM132.485 1.27128C134.045 1.0154 135.612 0.785755 137.18 0.57926L0.584526 137.176C0.79 135.608 1.02067 134.044 1.27552 132.481L132.485 1.27128ZM173.813 0C175.013 0.118942 176.215 0.250609 177.416 0.398086L0.40349 177.412C0.254717 176.211 0.123187 175.009 0 173.807L173.813 0ZM206.926 6.93295C207.93 7.25735 208.93 7.59449 209.93 7.94102L7.94102 209.925C7.59977 208.93 7.2616 207.926 6.93732 206.922L206.926 6.93295ZM234.865 19.0495C235.724 19.5234 236.577 20.009 237.423 20.4978L20.5031 237.419C20.0132 236.571 19.5278 235.72 19.0548 234.86L234.865 19.0495ZM258.725 35.2413C259.457 35.846 260.186 36.4506 260.905 37.0678L37.0719 260.905C36.4547 260.181 35.8501 259.453 35.2455 258.721L258.725 35.2413ZM278.931 55.0893C279.545 55.8139 280.154 56.5418 280.754 57.275L57.2791 280.754C56.543 280.149 55.8139 279.544 55.0945 278.927L278.931 55.0893ZM295.501 78.5754C295.991 79.4234 296.472 80.2786 296.945 81.135L81.1392 296.945C80.2798 296.471 79.4275 295.99 78.5797 295.501L295.501 78.5754ZM308.059 106.07C308.404 107.065 308.737 108.065 309.063 109.068L109.074 309.063C108.07 308.737 107.069 308.4 106.074 308.055L308.059 106.07ZM315.601 138.583C315.749 139.785 315.881 140.985 316 142.187L142.191 316C140.99 315.876 139.789 315.744 138.587 315.596L315.601 138.583ZM315.42 178.815C315.214 180.386 314.979 181.955 314.729 183.514L183.518 314.724C181.959 314.979 180.392 315.21 178.82 315.415L315.42 178.815ZM293.493 240.797C290.88 245.073 288.07 249.224 285.063 253.232L253.24 285.054C249.228 288.061 245.077 290.876 240.797 293.492L293.493 240.797Z"
    fill="#F1F1F1" />
</svg>