<svg width="80" height="102" viewBox="0 0 240 282" fill="none" xmlns="http://www.w3.org/2000/svg">
<path fill-rule="evenodd" clip-rule="evenodd" d="M41.106 20.2736C43.737 18.3008 46.4591 16.4544 49.2618 14.7404L14.7431 49.2618C16.4572 46.459 18.3008 43.7363 20.2715 41.1087L41.106 20.2736ZM86.7861 0.832768C87.808 0.665153 88.8346 0.514719 89.8615 0.379452L0.382902 89.8587C0.5175 88.8319 0.668603 87.8073 0.835549 86.7833L86.7861 0.832768ZM113.858 0C114.645 0.0779148 115.432 0.164165 116.219 0.260772L0.264311 116.216C0.166856 115.429 0.0806955 114.642 0 113.855L113.858 0ZM135.55 4.54152C136.207 4.75402 136.862 4.97487 137.518 5.20187L5.20187 137.514C4.97833 136.862 4.7568 136.205 4.54438 135.547L135.55 4.54152ZM153.851 12.4786C154.414 12.7891 154.973 13.1071 155.527 13.4274L13.4308 155.525C13.1099 154.969 12.792 154.412 12.4821 153.848L153.851 12.4786ZM169.481 23.0853C169.961 23.4814 170.438 23.8774 170.909 24.2817L24.2844 170.91C23.8801 170.435 23.4841 169.958 23.088 169.478L169.481 23.0853ZM182.718 36.087C183.12 36.5617 183.519 37.0385 183.912 37.5187L37.5214 183.912C37.0392 183.515 36.5617 183.119 36.0904 182.715L182.718 36.087ZM193.572 51.4719C193.893 52.0274 194.208 52.5876 194.518 53.1485L53.1513 194.518C52.5883 194.207 52.0301 193.892 51.4747 193.572L193.572 51.4719ZM201.798 69.4823C202.024 70.1343 202.242 70.7891 202.456 71.4467L71.4501 202.456C70.7926 202.242 70.1371 202.022 69.485 201.795L201.798 69.4823ZM206.738 90.7805C206.836 91.5678 206.922 92.3544 207 93.1417L93.1444 207C92.3572 206.919 91.5706 206.832 90.7833 206.736L206.738 90.7805ZM206.62 117.135C206.485 118.165 206.331 119.192 206.167 120.213L120.216 206.164C119.195 206.331 118.168 206.482 117.139 206.617L206.62 117.135ZM192.257 157.737C190.545 160.538 188.704 163.257 186.734 165.883L165.888 186.728C163.26 188.698 160.541 190.542 157.737 192.256L192.257 157.737Z" fill="#F1F1F1"/>
<path fill-rule="evenodd" clip-rule="evenodd" d="M116.581 143.083C118.539 141.615 120.564 140.241 122.649 138.966L96.9683 164.649C98.2435 162.564 99.6151 160.538 101.081 158.583L116.581 143.083ZM150.566 128.62C151.326 128.495 152.09 128.383 152.853 128.282L86.2849 194.851C86.385 194.088 86.4974 193.325 86.6216 192.563L150.566 128.62ZM170.706 128C171.291 128.058 171.877 128.122 172.462 128.194L86.1966 214.46C86.1241 213.875 86.06 213.289 86 212.704L170.706 128ZM186.844 131.379C187.333 131.537 187.82 131.701 188.308 131.87L89.87 230.305C89.7037 229.82 89.5389 229.331 89.3808 228.842L186.844 131.379ZM200.459 137.284C200.878 137.515 201.294 137.751 201.706 137.989L95.992 243.704C95.7533 243.291 95.5167 242.876 95.2862 242.457L200.459 137.284ZM212.088 145.175C212.444 145.469 212.799 145.764 213.15 146.065L104.067 255.15C103.766 254.797 103.471 254.442 103.177 254.085L212.088 145.175ZM221.935 154.847C222.234 155.2 222.531 155.555 222.823 155.912L113.915 264.823C113.556 264.528 113.2 264.233 112.85 263.933L221.935 154.847ZM230.01 166.293C230.249 166.706 230.483 167.123 230.714 167.54L125.543 272.714C125.124 272.483 124.708 272.248 124.295 272.01L230.01 166.293ZM236.13 179.692C236.298 180.177 236.46 180.664 236.619 181.154L139.156 278.619C138.667 278.461 138.179 278.296 137.694 278.128L236.13 179.692ZM239.805 195.537C239.878 196.123 239.942 196.708 240 197.294L155.296 282C154.71 281.939 154.125 281.875 153.539 281.803L239.805 195.537ZM239.717 215.144C239.617 215.91 239.503 216.674 239.38 217.434L175.436 281.378C174.676 281.503 173.912 281.615 173.147 281.715L239.717 215.144ZM229.032 245.351C227.758 247.434 226.388 249.457 224.923 251.41L209.414 266.919C207.459 268.384 205.436 269.756 203.35 271.031L229.032 245.351Z" fill="#F1F1F1" fill-opacity="0.5"/>
</svg>
